<svg xmlns="http://www.w3.org/2000/svg" xmlns:xlink="http://www.w3.org/1999/xlink" version="1.1" x="0px" y="0px" viewBox="0 0 64 80" style="enable-background:new 0 0 64 64;" xml:space="preserve"><g><path d="M19.581,32.826c-0.317-0.292-0.489-0.69-0.484-1.122c0.006-0.431,0.188-0.824,0.512-1.108l11.466-10.055   c1.865-1.636,2.052-4.484,0.416-6.351c-1.637-1.865-4.485-2.051-6.351-0.416L8.655,28.23c-0.959,0.84-1.518,2.053-1.533,3.327   c-0.017,1.275,0.513,2.502,1.45,3.366l16.535,15.229c0.863,0.795,1.956,1.188,3.046,1.188c1.215,0,2.427-0.487,3.313-1.449   c0,0,0,0,0-0.001c1.68-1.824,1.563-4.677-0.262-6.358L19.581,32.826z M29.26,47.859L29.26,47.859   c-0.561,0.606-1.514,0.646-2.12,0.087L10.605,32.716c-0.317-0.292-0.489-0.69-0.484-1.122c0.006-0.431,0.188-0.824,0.512-1.108   L27.118,16.03c0.284-0.249,0.637-0.372,0.988-0.372c0.417,0,0.833,0.173,1.129,0.51c0.545,0.622,0.482,1.572-0.14,2.117   L17.631,28.34c-0.959,0.84-1.518,2.053-1.533,3.327c-0.017,1.275,0.513,2.502,1.45,3.366l11.624,10.706   C29.78,46.299,29.82,47.251,29.26,47.859z"/><path d="M52.462,26.773H34.355c-2.436,0-4.417,1.981-4.417,4.417v1.62c0,2.435,1.981,4.416,4.417,4.416h18.106   c2.436,0,4.417-1.981,4.417-4.416v-1.62C56.879,28.755,54.897,26.773,52.462,26.773z M53.879,32.81   c0,0.781-0.636,1.416-1.417,1.416H34.355c-0.781,0-1.417-0.635-1.417-1.416v-1.62c0-0.781,0.636-1.417,1.417-1.417h18.106   c0.781,0,1.417,0.636,1.417,1.417V32.81z"/></g><text x="0" y="79" fill="#000000" font-size="5px" font-weight="bold" font-family="'Helvetica Neue', Helvetica, Arial-Unicode, Arial, Sans-serif">Created by Adam Novantio</text><text x="0" y="84" fill="#000000" font-size="5px" font-weight="bold" font-family="'Helvetica Neue', Helvetica, Arial-Unicode, Arial, Sans-serif">from the Noun Project</text></svg>